<svg width="282" height="358" viewBox="0 0 282 358" fill="none" xmlns="http://www.w3.org/2000/svg">
<path d="M0.950745 117.497C9.36198 113.266 17.4043 109.061 25.1883 105.003C33.2061 100.822 41.4821 96.5054 50.1639 92.1399C50.5574 91.9432 51 91.8939 51.4304 92.0169C73.0733 98.1655 93.6711 103.072 114.392 106.995L119.495 11.028C119.79 6.72403 122.016 3.14556 124.918 2.33395C132.555 0.181951 139.589 0.23117 147.705 2.51844C150.521 3.30545 152.427 6.79787 152.341 11.0035C152.058 23.5957 151.726 35.9051 151.32 48.0055C179.714 46.0011 207.702 42.312 236.797 36.7291C237.228 36.643 237.67 36.7291 238.052 36.9627C246.18 41.9922 253.952 46.9479 261.465 51.7438C268.967 56.5397 276.738 61.4954 284.855 66.5127C285.322 66.7955 285.629 67.2874 285.679 67.8408C285.728 68.3819 285.519 68.9229 285.113 69.2918C283.145 71.0872 281.215 72.8703 279.309 74.6288C270.701 82.5605 262.56 90.0494 253.263 97.5138C248.689 101.178 212.166 104.117 161.072 107.868C156.841 108.175 152.747 108.483 148.799 108.778C147.729 129.966 146.512 150.736 145.159 171.407C145.159 171.481 145.184 171.555 145.184 171.629C145.184 171.678 145.147 171.715 145.135 171.764C144.938 174.85 144.729 177.925 144.52 181.011C168.032 186.213 210.445 194.993 241.347 198.006C241.778 198.043 242.184 198.252 242.479 198.584C248.947 205.802 255.071 212.849 260.986 219.649C266.765 226.289 272.73 233.151 279.013 240.173C279.382 240.579 279.53 241.132 279.419 241.673C279.309 242.214 278.964 242.669 278.472 242.903C276.037 244.096 273.627 245.276 271.242 246.444C260.777 251.597 250.902 256.454 239.921 260.943C237.67 261.865 228.927 260.684 215.019 258.004C201.419 255.384 182.874 251.326 160.629 246.383C153.484 244.797 146.549 243.259 140.117 241.857C138.556 262.394 136.908 283.237 135.223 304.696C133.895 321.555 132.542 338.685 131.19 356.233C130.882 360.205 128.533 363.292 125.767 363.402L106.94 364.804C106.595 364.816 106.263 364.792 105.931 364.73C104.984 364.546 104.099 364.054 103.361 363.292C101.775 361.668 100.951 358.951 101.148 356.024L111.145 167.952C89.2687 164.386 71.3764 161.348 57.9725 158.766C41.519 155.593 31.8043 153.085 29.7261 151.117C21.1304 142.903 13.7028 134.737 5.83267 126.117C4.06188 124.174 2.27881 122.219 0.45883 120.239C0.0899158 119.833 -0.0699168 119.28 0.0284602 118.739C0.126837 118.198 0.471169 117.743 0.963054 117.497H0.950745ZM160.801 104.376C195.122 101.855 246.979 98.0548 251.062 94.7838C260.26 87.3932 268.364 79.9412 276.923 72.0587C278.288 70.8044 279.653 69.5378 281.043 68.2712C273.615 63.6597 266.483 59.1098 259.572 54.6952C252.243 50.0222 244.68 45.1894 236.785 40.2952C207.666 45.8535 179.64 49.518 151.197 51.5225C150.57 69.8698 149.82 87.7252 148.959 105.261C152.783 104.978 156.731 104.683 160.801 104.388V104.376ZM161.391 242.989C192.208 249.826 234.412 259.184 238.605 257.721C249.463 253.281 259.301 248.436 269.704 243.321C271.414 242.485 273.135 241.636 274.869 240.775C269.139 234.332 263.654 228.036 258.354 221.936C252.575 215.296 246.611 208.434 240.327 201.412C209.547 198.326 167.798 189.718 144.286 184.528C143.069 202.396 141.765 220.264 140.4 238.353C146.979 239.779 154.075 241.366 161.404 242.989H161.391ZM104.628 356.233C104.628 356.233 104.628 356.245 104.628 356.258C104.468 358.57 105.193 360.18 105.857 360.869C106.312 361.336 106.669 361.324 106.731 361.324L125.558 359.935C126.308 359.91 127.513 358.348 127.697 355.987C129.05 338.427 130.403 321.297 131.731 304.438C135.076 262.037 138.224 222.084 140.929 182.057C140.929 182.044 140.929 182.02 140.929 182.007C142.589 157.339 144.089 132.634 145.356 107.315C145.356 107.302 145.356 107.29 145.356 107.278C145.356 107.229 145.368 107.179 145.368 107.13C146.29 88.5123 147.102 69.5501 147.754 50.0223C147.754 50.0223 147.754 50.0222 147.754 49.9976C147.754 49.973 147.754 49.9608 147.754 49.9362C148.184 37.1963 148.541 24.2106 148.836 10.9174C148.898 8.18743 147.803 6.17066 146.758 5.87553C145.454 5.50662 144.175 5.2115 142.921 4.96555C137.018 3.82192 131.62 4.0679 125.853 5.69112C124.598 6.04773 123.172 8.22434 122.975 11.2371L104.628 356.221V356.233ZM8.40273 123.768C16.236 132.352 23.6266 140.468 32.1239 148.596C35.8008 152.101 85.5796 160.266 111.33 164.447L114.195 110.524C93.4374 106.601 72.7782 101.707 51.1229 95.5708C42.6871 99.8133 34.6203 104.031 26.7993 108.102C19.6424 111.828 12.264 115.677 4.57834 119.575C5.86954 120.977 7.13612 122.379 8.40273 123.756V123.768Z" fill="white"/>
<path d="M183.207 73.2146C183.207 75.2559 182.42 76.9775 180.846 78.3671C179.272 79.769 177.353 80.4576 175.09 80.4576C174.254 80.4576 173.418 80.3347 172.557 80.0764C171.696 79.8182 170.86 79.4493 170.036 78.9328C169.815 76.9899 169.655 74.9854 169.544 72.9195C169.434 70.8413 169.385 68.6524 169.385 66.3405C169.385 65.3322 169.385 64.5697 169.397 64.0655C169.397 63.5614 169.422 63.0941 169.434 62.6514C170.405 62.1841 171.414 61.8152 172.459 61.5693C173.504 61.3233 174.549 61.188 175.582 61.188C177.648 61.188 179.235 61.5447 180.317 62.2702C181.399 62.9834 181.94 64.0163 181.94 65.369C181.94 66.1929 181.756 66.9431 181.387 67.6071C181.018 68.2712 180.489 68.8492 179.776 69.3411C180.858 69.6608 181.694 70.1649 182.297 70.8536C182.899 71.5299 183.194 72.3292 183.194 73.2146H183.207ZM174.254 77.0759C174.488 77.1989 174.709 77.2849 174.918 77.3464C175.127 77.4079 175.324 77.4325 175.533 77.4325C176.209 77.4325 176.8 77.1128 177.316 76.4488C177.821 75.797 178.079 75.0469 178.079 74.223C178.079 73.5343 177.882 73.0056 177.488 72.6367C177.095 72.2801 176.505 72.0956 175.742 72.0956C175.521 72.0956 175.287 72.1202 175.054 72.1694C174.82 72.2186 174.549 72.3046 174.267 72.4276C174.254 72.6612 174.242 72.9195 174.242 73.1778C174.242 73.436 174.242 73.8418 174.242 74.3828C174.242 75.1453 174.242 75.7109 174.242 76.0799C174.242 76.4488 174.242 76.7931 174.267 77.0882L174.254 77.0759ZM176.984 66.0823C176.984 65.4059 176.8 64.9018 176.431 64.5575C176.062 64.2254 175.509 64.0532 174.783 64.0532H174.709C174.623 65.0001 174.549 65.8978 174.488 66.7463C174.426 67.5948 174.377 68.4065 174.34 69.1812C175.201 68.9967 175.865 68.6401 176.308 68.099C176.763 67.558 176.984 66.8816 176.984 66.0823Z" fill="white"/>
<path d="M197.926 80.2363C197.434 80.3839 195.86 80.5683 193.204 80.7651C190.548 80.9618 188.334 81.0602 186.551 81.0602C186.133 78.3794 185.752 75.2559 185.408 71.6775C185.064 68.099 184.879 65.1354 184.842 62.7497C187.449 62.2701 189.724 61.9136 191.642 61.7045C193.561 61.4955 195.455 61.3971 197.299 61.3971C197.299 62.0242 197.262 62.6883 197.188 63.3769C197.115 64.0778 196.992 64.8034 196.82 65.5658C195.873 65.5658 194.889 65.5781 193.868 65.615C192.848 65.6519 191.79 65.7011 190.696 65.7625C190.659 66.1315 190.634 66.5618 190.622 67.0414C190.61 67.521 190.585 68.2466 190.573 69.2057C191.433 68.9475 192.306 68.763 193.167 68.6523C194.028 68.5417 194.913 68.4802 195.811 68.4802C195.946 69.0705 196.045 69.673 196.119 70.3002C196.18 70.9273 196.217 71.6651 196.217 72.5013C195.258 72.5013 194.299 72.526 193.339 72.5874C192.393 72.6489 191.47 72.7227 190.573 72.8211C190.585 73.5835 190.61 74.3213 190.646 75.0469C190.683 75.7724 190.733 76.461 190.794 77.1251C191.286 77.1251 192.319 77.0267 193.893 76.8423C195.467 76.6455 196.66 76.4734 197.447 76.3258C197.582 76.6824 197.693 77.2604 197.791 78.0597C197.877 78.859 197.926 79.5969 197.926 80.2486V80.2363Z" fill="white"/>
<path d="M215.77 81.3922C215.179 81.7734 214.466 82.1054 213.642 82.3637C212.818 82.6219 211.834 82.8186 210.703 82.9539C210.605 81.9455 210.47 80.888 210.285 79.7813C210.113 78.6746 209.879 77.5555 209.609 76.4119C208.527 76.4242 207.555 76.461 206.682 76.5102C205.821 76.5594 204.997 76.6332 204.235 76.7316C203.964 77.494 203.682 78.2195 203.399 78.9082C203.104 79.5968 202.821 80.2362 202.526 80.8019C201.689 80.6666 200.915 80.3961 200.177 80.0026C199.439 79.6091 198.861 79.1418 198.431 78.6007C199.734 76.1905 200.878 73.7557 201.849 71.3086C202.821 68.8614 203.829 65.7748 204.887 62.0488C205.711 62.0488 206.461 62.0857 207.137 62.1718C207.801 62.2456 208.551 62.3931 209.363 62.5899C210.838 64.914 212.105 67.6809 213.199 70.8904C214.282 74.1 215.13 77.6047 215.757 81.4168L215.77 81.3922ZM207.014 67.8284C206.793 68.6524 206.547 69.5255 206.276 70.4601C206.006 71.3823 205.711 72.3292 205.415 73.2884C205.993 73.2023 206.559 73.1408 207.1 73.0917C207.654 73.0425 208.207 73.0056 208.773 72.9933C208.49 72.0464 208.194 71.1487 207.912 70.2879C207.629 69.4271 207.334 68.6155 207.026 67.8408L207.014 67.8284Z" fill="white"/>
<path d="M226.665 74.0631C227.353 74.0016 228.091 74.0385 228.866 74.1738C229.641 74.3214 230.194 74.5181 230.526 74.764C230.391 76.707 229.678 78.2072 228.399 79.2771C227.12 80.3469 225.374 80.8757 223.148 80.8757C221.045 80.8757 219.41 80.224 218.217 78.9205C217.024 77.617 216.434 75.7724 216.446 73.3868C216.446 70.3125 217.294 67.7301 218.991 65.6273C220.688 63.5245 222.828 62.4669 225.398 62.4669C226.972 62.4669 228.239 62.9588 229.21 63.9303C230.182 64.9018 230.735 66.2544 230.883 67.9883C229.985 68.3818 229.21 68.6278 228.571 68.7507C227.931 68.8737 227.12 68.9229 226.136 68.9229C226.136 67.8285 226.001 66.98 225.718 66.3897C225.435 65.7994 225.042 65.5043 224.537 65.5043C223.824 65.5043 223.234 66.156 222.754 67.4472C222.275 68.7507 222.041 70.3125 222.041 72.1448C222.041 73.9278 222.25 75.3052 222.681 76.252C223.111 77.2112 223.726 77.6785 224.525 77.6785C225.337 77.6785 225.927 77.3588 226.308 76.7193C226.677 76.0799 226.8 75.1821 226.665 74.0385V74.0631Z" fill="white"/>
<path d="M247.041 62.0734C247.176 64.8403 247.287 68.0744 247.373 71.7882C247.459 75.5019 247.509 78.7484 247.509 81.5521C246.574 81.5521 245.615 81.5029 244.606 81.4291C243.61 81.343 242.885 81.2324 242.442 81.0971C242.442 80.0027 242.442 78.7238 242.417 77.2481C242.405 75.7847 242.393 74.2968 242.368 72.7965C241.532 72.8088 240.757 72.8457 240.032 72.8826C239.306 72.9195 238.618 72.981 237.978 73.067C237.954 73.9156 237.941 74.8009 237.941 75.7355C237.941 76.6701 237.929 77.8998 237.929 79.4123C237.486 79.5476 236.81 79.6706 235.912 79.769C235.002 79.8674 234.191 79.9166 233.453 79.9166C233.096 75.6126 232.863 72.1571 232.715 69.5255C232.567 66.8939 232.506 64.6681 232.506 62.8235C232.912 62.553 233.416 62.3439 234.031 62.1964C234.646 62.0488 235.273 61.975 235.912 61.975C236.392 61.975 236.822 61.9996 237.204 62.0488C237.597 62.098 237.978 62.1718 238.372 62.2824C238.31 63.0449 238.249 64.0163 238.187 65.2092C238.138 66.402 238.089 67.7424 238.052 69.2304C238.802 69.1197 239.515 69.0213 240.216 68.9475C240.905 68.8738 241.606 68.8245 242.307 68.8122C242.27 67.3489 242.221 65.9839 242.159 64.7296C242.098 63.4753 242.024 62.43 241.962 61.5815C242.368 61.4831 242.75 61.4093 243.094 61.3602C243.438 61.311 243.807 61.2864 244.176 61.2864C244.717 61.2864 245.246 61.3602 245.75 61.5077C246.254 61.6553 246.685 61.8521 247.041 62.098V62.0734Z" fill="white"/>
<path d="M48.3806 118.37C48.1716 121.051 47.8765 124.186 47.4952 127.765C47.1263 131.355 46.7574 134.491 46.4131 137.184C45.5154 137.074 44.5931 136.901 43.6339 136.705C42.6748 136.496 41.9984 136.299 41.5926 136.115C41.7278 135.057 41.8755 133.815 42.0477 132.401C42.2076 130.987 42.3796 129.56 42.5518 128.109C41.7525 128.023 40.9901 127.949 40.2891 127.9C39.5759 127.851 38.9119 127.826 38.2847 127.826C38.1617 128.638 38.0387 129.486 37.9157 130.396C37.7928 131.294 37.6329 132.475 37.4484 133.938C37.0057 134.012 36.3417 134.049 35.4563 134.024C34.5709 134.012 33.7717 133.95 33.0707 133.864C33.2675 129.683 33.4519 126.314 33.6487 123.756C33.8331 121.21 34.0545 119.046 34.2758 117.275C34.7062 117.066 35.2227 116.931 35.8253 116.857C36.4278 116.783 37.0427 116.796 37.6699 116.869C38.1248 116.931 38.543 117.005 38.9119 117.103C39.2808 117.201 39.6497 117.324 40.0063 117.472C39.8465 118.198 39.6619 119.132 39.4652 120.276C39.2684 121.419 39.0594 122.711 38.838 124.137C39.5759 124.113 40.2769 124.113 40.9532 124.137C41.6296 124.149 42.3058 124.186 42.9821 124.26C43.1297 122.846 43.2527 121.53 43.3388 120.3C43.4249 119.083 43.4987 118.062 43.5356 117.238C43.9414 117.189 44.3104 117.165 44.6547 117.165C44.999 117.165 45.3433 117.177 45.6999 117.226C46.2164 117.3 46.7205 117.435 47.1878 117.632C47.6551 117.829 48.0486 118.075 48.3683 118.37H48.3806Z" fill="white"/>
<path d="M59.1159 119.194C61.0712 119.452 62.5101 120.288 63.4077 121.69C64.3054 123.104 64.6128 124.973 64.3054 127.322C64.1456 128.589 63.8011 129.855 63.2847 131.122C62.7682 132.388 62.1534 133.483 61.4156 134.405C60.5056 135.512 59.4726 136.299 58.3167 136.791C57.1608 137.27 55.8941 137.43 54.5414 137.258C52.5862 137 51.1474 136.053 50.2497 134.405C49.352 132.757 49.0693 130.654 49.4013 128.084C49.7825 125.145 50.8645 122.846 52.6599 121.186C54.4553 119.526 56.5951 118.862 59.0914 119.181L59.1159 119.194ZM55.9925 134.221C56.7304 134.319 57.3452 133.889 57.8248 132.929C58.3167 131.97 58.7102 130.322 59.0176 128.011C59.2758 126.018 59.3005 124.567 59.0914 123.694C58.8824 122.821 58.4027 122.329 57.6526 122.231C56.9025 122.133 56.2508 122.6 55.722 123.621C55.181 124.641 54.7873 126.129 54.5291 128.072C54.2832 129.929 54.2955 131.392 54.5414 132.474C54.7874 133.557 55.2793 134.135 55.9925 134.233V134.221Z" fill="white"/>
<path d="M72.6304 138.02C71.8926 138.107 71.1671 138.143 70.4661 138.131C69.7652 138.131 68.9781 138.057 68.1173 137.947C68.4125 135.672 68.6707 133.212 68.8797 130.556C69.0888 127.9 69.2118 125.6 69.2241 123.645C69.015 123.645 68.5969 123.621 67.9821 123.596C67.3672 123.571 66.5556 123.547 65.5227 123.51C65.3874 122.92 65.3012 122.305 65.2643 121.69C65.2274 121.075 65.2521 120.485 65.3259 119.907C67.6254 119.698 69.8144 119.612 71.868 119.661C73.9339 119.698 76.2457 119.894 78.8035 120.227C78.8527 120.509 78.865 120.829 78.865 121.186C78.865 121.542 78.8282 121.924 78.779 122.354C78.7421 122.649 78.6806 122.956 78.5945 123.301C78.5084 123.633 78.3977 124.002 78.2378 124.395C77.623 124.321 77.0082 124.235 76.4179 124.174C75.8276 124.112 75.2496 124.051 74.6716 124.014C74.6102 125.022 74.5241 126.08 74.4135 127.174C74.3028 128.269 74.1799 129.388 74.02 130.544C73.8847 131.614 73.7002 132.77 73.4666 133.999C73.2452 135.229 72.9624 136.569 72.6181 138.02H72.6304Z" fill="white"/>
<path d="M90.5969 141.685C90.105 141.771 88.5679 141.747 85.9855 141.611C83.4031 141.476 81.2511 141.292 79.5418 141.07C79.468 138.439 79.4925 135.377 79.6032 131.884C79.7138 128.392 79.8984 125.502 80.1689 123.215C82.739 123.067 84.977 123.018 86.8585 123.055C88.74 123.092 90.5722 123.227 92.343 123.461C92.2692 124.063 92.1463 124.69 91.9865 125.355C91.8266 126.019 91.6175 126.707 91.3593 127.42C90.4493 127.297 89.4901 127.199 88.5063 127.101C87.5225 127.002 86.4896 126.929 85.432 126.855C85.3459 127.211 85.2722 127.617 85.1984 128.072C85.1246 128.527 85.014 129.228 84.8787 130.15C85.7395 130.015 86.6002 129.941 87.4487 129.941C88.2973 129.941 89.158 129.991 90.0188 130.101C90.0803 130.691 90.0926 131.282 90.0804 131.897C90.0681 132.511 90.0066 133.212 89.9082 134.024C88.9736 133.901 88.0513 133.815 87.129 133.753C86.2067 133.692 85.3091 133.655 84.4237 133.643C84.3499 134.381 84.2761 135.094 84.2146 135.795C84.1531 136.496 84.1163 137.172 84.104 137.812C84.5713 137.873 85.5919 137.91 87.129 137.922C88.6662 137.922 89.8345 137.922 90.6215 137.873C90.7076 138.23 90.7444 138.808 90.7321 139.582C90.7321 140.369 90.6707 141.07 90.5969 141.71V141.685Z" fill="white"/>
<path d="M104.234 141.193C104.308 141.636 104.357 142.251 104.382 143.038C104.406 143.825 104.382 144.489 104.308 145.018C102.685 144.809 101.135 144.661 99.6474 144.587C98.1595 144.513 96.2902 144.477 94.0399 144.501C93.9661 142.029 94.0153 138.918 94.1874 135.168C94.3596 131.417 94.6178 128.306 94.9375 125.834C95.7122 125.736 96.4748 125.686 97.2126 125.686C97.9504 125.686 98.6759 125.723 99.4014 125.822C99.6104 125.846 99.8195 125.883 100.029 125.92C100.225 125.957 100.447 126.006 100.668 126.068C100.434 126.867 100.188 127.937 99.9302 129.277C99.672 130.618 99.4383 132.056 99.2415 133.581C98.9587 135.795 98.7743 137.43 98.6882 138.512C98.6021 139.595 98.5776 140.517 98.6145 141.304C99.5614 141.156 100.533 141.082 101.529 141.058C102.525 141.033 103.423 141.083 104.234 141.193Z" fill="white"/>
<path d="M164.576 226.302C163.728 226.474 162.965 226.572 162.277 226.572C161.588 226.572 160.801 226.511 159.94 226.375C160.297 224.937 160.678 223.264 161.072 221.334C161.465 219.403 161.871 217.349 162.277 215.185C161.6 215.997 160.949 216.833 160.334 217.718C159.719 218.591 159.141 219.501 158.588 220.448C158.219 220.497 157.801 220.485 157.309 220.424C156.817 220.362 156.362 220.251 155.919 220.092C155.649 219.083 155.341 218.099 155.009 217.116C154.677 216.144 154.308 215.185 153.903 214.25C153.62 215.997 153.447 217.73 153.374 219.477C153.3 221.211 153.337 222.686 153.484 223.867C153.079 223.916 152.464 223.928 151.652 223.879C150.84 223.842 150.09 223.768 149.414 223.658C149.439 221.727 149.586 219.28 149.869 216.316C150.152 213.353 150.459 210.758 150.816 208.52C151.505 208.188 152.255 207.93 153.042 207.745C153.841 207.561 154.567 207.475 155.231 207.499C156.054 209 156.743 210.365 157.26 211.594C157.788 212.812 158.207 213.992 158.539 215.124C159.289 213.943 160.088 212.824 160.936 211.766C161.785 210.709 162.646 209.737 163.556 208.852C164.121 209.036 164.675 209.258 165.228 209.504C165.782 209.762 166.298 210.057 166.778 210.377C166.569 212.369 166.261 214.791 165.855 217.632C165.45 220.473 165.019 223.363 164.552 226.289L164.576 226.302Z" fill="white"/>
<path d="M175.853 211.557C177.587 211.828 178.841 212.615 179.616 213.894C180.391 215.173 180.6 216.857 180.28 218.923C180.095 220.042 179.763 221.161 179.284 222.28C178.792 223.387 178.214 224.346 177.538 225.158C176.701 226.117 175.767 226.806 174.721 227.199C173.676 227.605 172.557 227.703 171.352 227.519C169.618 227.248 168.364 226.363 167.602 224.875C166.839 223.387 166.642 221.506 167.011 219.231C167.429 216.624 168.45 214.607 170.086 213.168C171.721 211.742 173.652 211.201 175.865 211.557H175.853ZM172.693 224.851C173.344 224.961 173.898 224.592 174.365 223.744C174.82 222.895 175.226 221.444 175.545 219.391C175.828 217.62 175.89 216.341 175.718 215.554C175.558 214.767 175.14 214.324 174.476 214.214C173.812 214.103 173.221 214.496 172.717 215.394C172.213 216.292 171.819 217.595 171.549 219.329C171.291 220.977 171.254 222.28 171.451 223.252C171.647 224.223 172.065 224.752 172.705 224.851H172.693Z" fill="white"/>
<path d="M193.512 214.828C193.598 216.378 193.61 217.644 193.585 218.653C193.548 219.649 193.462 220.583 193.327 221.444C192.774 224.937 191.802 227.482 190.4 229.105C189.011 230.729 187.228 231.368 185.051 231.024C183.366 230.753 182.198 229.917 181.534 228.491C180.87 227.076 180.723 225.158 181.116 222.748C181.35 221.26 181.731 219.747 182.235 218.21C182.752 216.661 183.182 215.677 183.539 215.222C183.821 215.197 184.178 215.185 184.584 215.197C184.99 215.21 185.383 215.246 185.752 215.308C186.207 215.382 186.588 215.468 186.896 215.579C187.215 215.689 187.449 215.812 187.609 215.935C187.215 217.066 186.883 218.21 186.601 219.354C186.318 220.497 186.084 221.592 185.924 222.625C185.654 224.359 185.531 225.724 185.568 226.72C185.605 227.728 185.814 228.257 186.17 228.318C186.613 228.392 187.043 227.888 187.461 226.806C187.867 225.724 188.236 224.137 188.568 222.059C188.728 221.026 188.839 219.907 188.875 218.714C188.912 217.521 188.888 216.255 188.789 214.914C189.392 214.755 190.154 214.681 191.052 214.669C191.962 214.669 192.774 214.705 193.499 214.828H193.512Z" fill="white"/>
<path d="M198.836 227.703L198.172 231.897C197.779 231.946 197.213 231.971 196.5 231.934C195.774 231.909 195.122 231.848 194.544 231.762C194.766 228.577 195.012 225.687 195.282 223.092C195.553 220.497 195.836 218.308 196.119 216.525C196.229 216.464 196.315 216.427 196.377 216.415C196.438 216.39 196.5 216.378 196.561 216.353C197.176 216.157 197.865 216.021 198.627 215.96C199.39 215.898 200.177 215.911 200.976 216.009C201.64 217.398 202.218 218.751 202.685 220.055C203.152 221.358 203.558 222.748 203.903 224.199C204.173 222.465 204.382 220.928 204.53 219.563C204.677 218.21 204.751 217.091 204.751 216.218C205.538 216.107 206.313 216.046 207.075 216.046C207.838 216.046 208.575 216.095 209.301 216.206C209.215 217.03 209.117 217.829 209.006 218.591C208.895 219.354 208.785 220.104 208.674 220.817C208.391 222.588 208.059 224.432 207.666 226.363C207.272 228.294 206.879 230.138 206.46 231.897C205.538 231.897 204.776 231.885 204.185 231.86C203.583 231.835 203.017 231.786 202.464 231.725C201.898 229.339 201.406 227.494 201 226.179C200.595 224.863 200.152 223.658 199.672 222.551C199.562 223.141 199.451 223.793 199.34 224.506C199.23 225.219 199.058 226.277 198.836 227.667V227.703Z" fill="white"/>
<path d="M216.827 233.336C216.163 233.397 215.524 233.409 214.896 233.385C214.269 233.36 213.568 233.286 212.806 233.163C213.126 231.147 213.421 228.958 213.667 226.597C213.925 224.236 214.085 222.194 214.159 220.46C213.962 220.448 213.605 220.424 213.052 220.387C212.511 220.35 211.773 220.301 210.863 220.251C210.752 219.71 210.691 219.182 210.678 218.628C210.666 218.075 210.691 217.546 210.777 217.042C212.83 216.907 214.773 216.894 216.618 216.98C218.45 217.079 220.504 217.3 222.779 217.657C222.816 217.915 222.828 218.198 222.803 218.518C222.791 218.837 222.754 219.182 222.693 219.551C222.656 219.809 222.594 220.092 222.508 220.387C222.422 220.682 222.312 221.002 222.164 221.346C221.611 221.26 221.082 221.174 220.553 221.1C220.024 221.026 219.508 220.965 219.004 220.915C218.917 221.813 218.819 222.748 218.684 223.719C218.561 224.691 218.413 225.687 218.253 226.707C218.106 227.654 217.909 228.675 217.676 229.769C217.442 230.864 217.159 232.044 216.827 233.323V233.336Z" fill="white"/>
<path d="M233.502 238.181C232.936 238.427 232.297 238.611 231.559 238.722C230.821 238.832 229.96 238.869 228.964 238.832C229.014 237.959 229.038 237.037 229.038 236.066C229.038 235.094 229.001 234.11 228.915 233.09C227.981 232.954 227.144 232.856 226.406 232.782C225.656 232.708 224.955 232.659 224.291 232.647C223.959 233.262 223.615 233.84 223.283 234.393C222.939 234.946 222.607 235.451 222.287 235.893C221.598 235.672 220.959 235.328 220.381 234.897C219.803 234.467 219.373 233.975 219.077 233.459C220.516 231.577 221.82 229.646 222.976 227.691C224.131 225.724 225.423 223.227 226.825 220.178C227.538 220.288 228.165 220.424 228.731 220.583C229.296 220.743 229.911 220.965 230.575 221.247C231.522 223.436 232.235 225.97 232.727 228.859C233.219 231.737 233.477 234.86 233.49 238.193L233.502 238.181ZM227.845 225.404C227.55 226.08 227.218 226.793 226.861 227.556C226.505 228.306 226.136 229.081 225.742 229.855C226.247 229.855 226.739 229.88 227.218 229.917C227.698 229.954 228.177 229.991 228.657 230.052C228.534 229.204 228.411 228.392 228.288 227.617C228.153 226.843 228.017 226.105 227.858 225.404H227.845Z" fill="white"/>
<path d="M241.458 226.572C241.151 228.527 240.782 230.581 240.351 232.696C239.921 234.824 239.515 236.631 239.134 238.119C238.703 238.168 238.138 238.181 237.425 238.156C236.711 238.131 236.06 238.07 235.457 237.972C235.937 234.959 236.306 232.217 236.564 229.733C236.822 227.249 236.982 225.01 237.031 223.006C237.412 222.834 237.855 222.711 238.347 222.662C238.839 222.613 239.343 222.625 239.872 222.711C240.265 222.772 240.61 222.846 240.917 222.932C241.224 223.018 241.556 223.141 241.913 223.301C241.852 223.744 241.79 224.248 241.716 224.814C241.643 225.367 241.556 225.957 241.458 226.585V226.572Z" fill="white"/>
<path d="M247.201 235.401L246.537 239.595C246.143 239.644 245.578 239.669 244.864 239.632C244.139 239.607 243.487 239.546 242.909 239.46C243.131 236.275 243.376 233.385 243.659 230.79C243.93 228.195 244.213 226.006 244.495 224.223C244.606 224.162 244.692 224.125 244.754 224.113C244.815 224.088 244.877 224.076 244.938 224.051C245.553 223.855 246.242 223.719 247.004 223.658C247.766 223.596 248.554 223.609 249.353 223.707C250.017 225.096 250.595 226.449 251.062 227.753C251.529 229.056 251.935 230.446 252.28 231.897C252.55 230.163 252.759 228.626 252.907 227.261C253.042 225.908 253.128 224.789 253.128 223.916C253.915 223.805 254.69 223.744 255.452 223.744C256.215 223.744 256.953 223.793 257.678 223.904C257.592 224.728 257.494 225.527 257.383 226.289C257.272 227.052 257.162 227.802 257.051 228.515C256.768 230.286 256.436 232.13 256.042 234.061C255.661 235.992 255.255 237.836 254.837 239.595C253.915 239.595 253.153 239.583 252.562 239.558C251.96 239.533 251.394 239.484 250.828 239.423C250.263 237.037 249.771 235.192 249.365 233.877C248.959 232.561 248.517 231.356 248.037 230.249C247.926 230.839 247.816 231.491 247.705 232.204C247.594 232.917 247.422 233.975 247.201 235.365V235.401Z" fill="white"/>
</svg>
