<svg width="1440" height="900" viewBox="0 0 1440 900" fill="none" xmlns="http://www.w3.org/2000/svg">
<path d="M1444.39 770.76H0.390015V902.76H1444.39V770.76Z" fill="#81C9F9"/>
<path d="M1444.39 770.47H1.39001V796.76H1444.39V770.47Z" fill="#0073C1"/>
<path opacity="0.5" fill-rule="evenodd" clip-rule="evenodd" d="M56.2 781.88V786.09H29.33V781.88H56.2ZM1287.39 781.88H1276.09V786.09H1287.39V781.88ZM1259.97 781.88V786.09H1233.1V781.88H1259.97ZM1216.98 781.88V786.09H1190.11V781.88H1216.98ZM1173.98 781.88V786.09H1147.11V781.88H1173.98ZM1130.99 781.88V786.09H1104.12V781.88H1130.99ZM1088 781.88V786.09H1061.13V781.88H1088ZM1045.01 781.88V786.09H1018.14V781.88H1045.01ZM1002.02 781.88V786.09H975.15V781.88H1002.02ZM959.03 781.88V786.09H932.16V781.88H959.03ZM916.03 781.88V786.09H889.16V781.88H916.03ZM873.04 781.88V786.09H846.17V781.88H873.04ZM830.05 781.88V786.09H803.18V781.88H830.05ZM787.06 781.88V786.09H760.19V781.88H787.06ZM744.07 781.88V786.09H717.2V781.88H744.07ZM701.08 781.88V786.09H674.21V781.88H701.08ZM658.09 781.88V786.09H631.22V781.88H658.09ZM615.09 781.88V786.09H588.22V781.88H615.09ZM572.1 781.88V786.09H545.23V781.88H572.1ZM529.11 781.88V786.09H502.24V781.88H529.11ZM486.12 781.88V786.09H459.25V781.88H486.12ZM443.13 781.88V786.09H416.26V781.88H443.13ZM400.14 781.88V786.09H373.27V781.88H400.14ZM357.15 781.88V786.09H330.28V781.88H357.15ZM314.15 781.88V786.09H287.28V781.88H314.15ZM271.16 781.88V786.09H244.29V781.88H271.16ZM228.17 781.88V786.09H201.3V781.88H228.17ZM185.18 781.88V786.09H158.31V781.88H185.18ZM142.19 781.88V786.09H115.32V781.88H142.19ZM99.2 781.88V786.09H72.33V781.88H99.2Z" fill="white"/>
<path opacity="0.5" fill-rule="evenodd" clip-rule="evenodd" d="M1360.2 781.88V786.09H1333.33V781.88H1360.2ZM1446.19 781.88V786.09H1419.32V781.88H1446.19ZM1403.2 781.88V786.09H1376.33V781.88H1403.2Z" fill="white"/>
<path d="M1440.39 522.7H0.390015V772.76H1440.39V522.7Z" fill="#CCE3FA"/>
<path d="M1440.39 500.06H0.390015V761.89H1440.39V500.06Z" fill="#CCE2FA"/>
<path d="M1440.39 477.42H0.390015V751.02H1440.39V477.42Z" fill="#CCE1FA"/>
<path d="M1440.39 454.77H0.390015V740.14H1440.39V454.77Z" fill="#CBE0FB"/>
<path d="M1440.39 432.13H0.390015V729.27H1440.39V432.13Z" fill="#CBDFFB"/>
<path d="M1440.39 409.49H0.390015V718.4H1440.39V409.49Z" fill="#CBDEFB"/>
<path d="M1440.39 386.85H0.390015V707.52H1440.39V386.85Z" fill="#CBDDFB"/>
<path d="M1440.39 364.21H0.390015V696.65H1440.39V364.21Z" fill="#CBDCFC"/>
<path d="M1440.39 341.57H0.390015V685.78H1440.39V341.57Z" fill="#CBDBFC"/>
<path d="M1440.39 318.93H0.390015V674.91H1440.39V318.93Z" fill="#CADAFC"/>
<path d="M1440.39 296.29H0.390015V664.04H1440.39V296.29Z" fill="#CAD9FC"/>
<path d="M1440.39 273.65H0.390015V653.17H1440.39V273.65Z" fill="#CAD8FC"/>
<path d="M1440.39 251.01H0.390015V642.29H1440.39V251.01Z" fill="#CAD8FD"/>
<path d="M1440.39 228.37H0.390015V631.42H1440.39V228.37Z" fill="#CAD7FD"/>
<path d="M1440.39 205.73H0.390015V620.55H1440.39V205.73Z" fill="#CAD6FD"/>
<path d="M1440.39 183.09H0.390015V609.68H1440.39V183.09Z" fill="#C9D5FD"/>
<path d="M1440.39 160.44H0.390015V598.8H1440.39V160.44Z" fill="#C9D4FD"/>
<path d="M1440.39 137.8H0.390015V587.93H1440.39V137.8Z" fill="#C9D3FE"/>
<path d="M1440.39 115.16H0.390015V577.06H1440.39V115.16Z" fill="#C9D2FE"/>
<path d="M1440.39 92.52H0.390015V566.18H1440.39V92.52Z" fill="#C9D1FE"/>
<path d="M1440.39 69.88H0.390015V555.31H1440.39V69.88Z" fill="#C9D0FE"/>
<path d="M1440.39 47.2401H0.390015V544.44H1440.39V47.2401Z" fill="#C8CFFF"/>
<path d="M1440.39 24.6H0.390015V533.57H1440.39V24.6Z" fill="#C8CEFF"/>
<path d="M1440.39 1.96002H0.390015V522.7H1440.39V1.96002Z" fill="#C8CDFF"/>
<g opacity="0.5">
<g style="mix-blend-mode:multiply">
<path d="M918.49 2.01001C918.49 2.01001 894.86 40.16 941.24 42.62C941.24 42.62 932.58 74.48 963.31 88.7C994.05 102.92 1025.09 73.39 1025.09 73.39C1025.09 73.39 1018.44 88.31 1044.31 93.77C1070.18 99.23 1078.05 70.93 1078.05 70.93C1078.05 70.93 1077.15 97.47 1094.58 100.2C1112.01 102.93 1140.54 75.85 1140.54 75.85C1140.54 75.85 1140.97 98.15 1168.85 93.77C1168.85 93.77 1172.07 133.52 1206.38 153.91C1240.69 174.3 1275.48 163.53 1290.02 160.3C1290.02 160.3 1281.44 176.62 1296.45 191.46C1296.45 191.46 1283.58 211.16 1296.45 225.96C1296.45 225.96 1286.8 265.89 1329.69 293.93C1372.58 321.97 1406.9 298.56 1406.9 298.56C1406.9 298.56 1397.25 311.81 1420.84 329.31C1420.84 329.31 1407.97 346.62 1412.26 373.06C1416.55 399.5 1430.49 408.54 1430.49 408.54C1430.49 408.54 1412.26 450.12 1444.43 469.11V2.01001H918.49Z" fill="#E9E9E7"/>
</g>
<path d="M894.74 2.01001C894.74 2.01001 870.04 36.76 918.51 39C918.51 39 909.45 68.02 941.58 80.97C973.7 93.92 1006.14 67.02 1006.14 67.02C1006.14 67.02 999.19 80.61 1026.23 85.58C1053.27 90.56 1061.49 64.78 1061.49 64.78C1061.49 64.78 1060.55 88.95 1078.77 91.44C1096.98 93.92 1126.8 69.27 1126.8 69.27C1126.8 69.27 1127.25 89.58 1156.39 85.59C1156.39 85.59 1159.75 121.79 1195.62 140.36C1231.49 158.93 1267.84 149.12 1283.04 146.18C1283.04 146.18 1274.07 161.05 1289.76 174.56C1289.76 174.56 1276.31 192.5 1289.76 205.98C1289.76 205.98 1279.67 242.35 1324.5 267.89C1369.33 293.43 1405.2 272.11 1405.2 272.11C1405.2 272.11 1395.11 284.18 1419.77 300.12C1419.77 300.12 1406.32 315.88 1410.8 339.96C1415.28 364.04 1429.85 372.27 1429.85 372.27C1429.85 372.27 1410.8 410.14 1444.42 427.44V2.01001H894.72H894.74Z" fill="white"/>
<g style="mix-blend-mode:multiply">
<path d="M649.57 2.01C649.57 2.01 637.7 40.77 683.04 50.88C683.04 50.88 679.95 76.16 708.13 91.32C736.3 106.49 766.98 64.36 766.98 64.36C766.98 64.36 776.7 81.21 791.35 77.84C806.01 74.47 808.05 48.31 808.05 48.31C808.05 48.31 821.58 60.91 835.97 48.31C850.37 35.71 835.97 13.8 835.97 13.8C835.97 13.8 861.55 28.97 872.65 2H649.58L649.57 2.01Z" fill="#E9E9E7"/>
</g>
<path d="M625.79 2.01C625.79 2.01 613.92 38.45 659.26 47.95C659.26 47.95 656.17 71.71 684.35 85.97C712.52 100.23 743.2 60.62 743.2 60.62C743.2 60.62 752.92 76.46 767.57 73.29C782.23 70.12 784.26 45.53 784.26 45.53C784.26 45.53 797.79 57.38 812.18 45.53C826.58 33.68 812.18 13.09 812.18 13.09C812.18 13.09 837.76 27.35 848.86 2H625.79V2.01Z" fill="white"/>
<path d="M1238.49 2.01001C1238.49 2.01001 1232.15 27.36 1259.08 28.94C1259.08 28.94 1254.33 43.2 1267 55.87C1279.67 68.54 1303.44 68.47 1327.2 45.54C1327.2 45.54 1333.54 64.9 1349.38 64.35C1349.38 64.35 1336.71 77.91 1362.05 89.07C1387.4 100.23 1411.16 78.05 1411.16 78.05C1411.16 78.05 1396.9 93.89 1411.16 101.81C1411.16 101.81 1398.49 119.13 1411.16 133.44C1423.83 147.75 1444.43 150.88 1444.43 150.88C1444.43 150.88 1420.67 163.6 1444.43 190.53V2.01001H1238.48H1238.49Z" fill="#CCE4FA"/>
<path d="M1175.12 2.01001C1175.12 2.01001 1164.03 22.6 1145.02 21.02C1145.02 21.02 1126.01 47.88 1095.91 45.54C1065.81 43.2 1056.3 23.85 1056.3 23.85C1056.3 23.85 1037.29 45.69 1016.69 23.85C1016.69 23.85 987.65 38.45 977.61 13.1C977.61 13.1 956.47 28.94 938.26 2.01001H1175.11H1175.12Z" fill="#CCE4FA"/>
</g>
<g opacity="0.5">
<g style="mix-blend-mode:multiply">
<path d="M1.95001 352.66C1.95001 352.66 32.05 337.85 32.05 377.79C32.05 377.79 68.84 363.62 82.22 401.53C95.6 439.44 42.08 465.11 42.08 465.11C42.08 465.11 84.84 460.81 84.37 494.88C84.37 494.88 137 473.78 159.78 510.19C182.57 546.6 159.78 572.28 159.78 572.28C159.78 572.28 223.48 576.25 192.99 622.47C192.99 622.47 216.61 620.27 222.28 655.33C227.94 690.4 180.59 706.68 180.59 706.68C180.59 706.68 218.72 687.9 225.11 721.71C225.11 721.71 263.07 701.43 290.85 718.54C318.64 735.65 311.86 754.23 311.86 754.23C311.86 754.23 351.47 742.44 364.85 770.68H1.95001V352.65V352.66Z" fill="#E9E9E7"/>
</g>
<path d="M1.95001 309.91C1.95001 309.91 30.44 293.59 30.44 337.61C30.44 337.61 65.25 321.99 77.91 363.77C90.57 405.55 39.93 433.86 39.93 433.86C39.93 433.86 80.39 429.11 79.94 466.68C79.94 466.68 129.74 443.42 151.3 483.55C172.86 523.68 151.3 551.99 151.3 551.99C151.3 551.99 211.58 556.36 182.72 607.31C182.72 607.31 205.07 604.89 210.43 643.54C215.79 682.19 170.99 700.14 170.99 700.14C170.99 700.14 207.07 679.44 213.12 716.7C213.12 716.7 249.04 694.35 275.33 713.2C301.62 732.06 295.21 752.54 295.21 752.54C295.21 752.54 332.69 739.55 345.35 770.68H1.95001V309.9V309.91Z" fill="white"/>
<g style="mix-blend-mode:multiply">
<path d="M1.95001 275.27C1.95001 275.27 23.96 277.54 30.74 255.7C30.74 255.7 54.45 265.77 69.69 246.61C84.93 227.45 61.22 210.21 61.22 210.21C61.22 210.21 86.62 207.33 79.85 180.59C73.08 153.85 51.06 156.19 51.06 156.19C51.06 156.19 83.23 137.6 51.06 104.93C51.06 104.93 73.07 59.16 27.35 61.71C27.35 61.71 39.2 11.45 1.95001 13.05V275.27Z" fill="#E9E9E7"/>
</g>
<path d="M1.95001 243.86C1.95001 243.86 22.52 245.98 28.85 225.57C28.85 225.57 51.01 234.98 65.25 217.08C79.49 199.18 57.34 183.06 57.34 183.06C57.34 183.06 81.08 180.37 74.75 155.38C68.42 130.39 47.85 132.57 47.85 132.57C47.85 132.57 77.92 115.2 47.85 84.66C47.85 84.66 68.42 41.89 25.69 44.27C25.69 44.27 36.77 -2.69999 1.95001 -1.19999V243.86Z" fill="white"/>
<path d="M1.95001 648.07C1.95001 648.07 14.61 635.18 19.36 659.57C19.36 659.57 65.25 621.77 100.06 652.12C134.87 682.47 100.06 718.65 100.06 718.65C100.06 718.65 122.21 701.78 125.38 724.27C125.38 724.27 144.08 709.36 159.26 725.82C174.44 742.28 173.65 755.73 173.65 755.73C173.65 755.73 202.29 740.47 208.63 767.42C208.87 768.45 209.08 769.53 209.25 770.69H1.95001V648.07Z" fill="#CCE4FA"/>
<path d="M1.95001 455.65C1.95001 455.65 20.94 455.53 19.36 474.04C19.36 474.04 44.68 475.94 46.26 495.46C47.84 514.98 24.11 533.65 24.11 533.65C24.11 533.65 35.26 537.78 24.15 557.78C24.15 557.78 38.36 585.26 1.96001 592.73V455.64L1.95001 455.65Z" fill="#CCE4FA"/>
<path d="M1.95001 130.53C1.95001 130.53 16.19 132.96 13.03 148.96C13.03 148.96 33.6 150.76 33.6 169.07C33.6 187.38 17.78 189.72 17.78 189.72C17.78 189.72 33.6 205.13 17.78 216.44C17.78 216.44 24.11 230.5 1.95001 244.08V130.52V130.53Z" fill="#CCE4FA"/>
</g>
<g opacity="0.5">
<path d="M407.31 506.86C411.585 506.86 415.05 503.395 415.05 499.12C415.05 494.845 411.585 491.38 407.31 491.38C403.035 491.38 399.57 494.845 399.57 499.12C399.57 503.395 403.035 506.86 407.31 506.86Z" fill="white"/>
<path d="M1048.72 574.12C1052.99 574.12 1056.46 570.655 1056.46 566.38C1056.46 562.105 1052.99 558.64 1048.72 558.64C1044.45 558.64 1040.98 562.105 1040.98 566.38C1040.98 570.655 1044.45 574.12 1048.72 574.12Z" fill="white"/>
<path d="M1062.01 579.86C1062.01 577.42 1060.03 575.44 1057.59 575.44C1055.15 575.44 1053.17 577.42 1053.17 579.86C1053.17 582.3 1055.15 584.28 1057.59 584.28C1060.03 584.28 1062.01 582.3 1062.01 579.86Z" fill="white"/>
<path d="M718.79 607.64C722.187 607.64 724.94 604.887 724.94 601.49C724.94 598.093 722.187 595.34 718.79 595.34C715.394 595.34 712.64 598.093 712.64 601.49C712.64 604.887 715.394 607.64 718.79 607.64Z" fill="white"/>
<path d="M421.97 492.95C424.544 492.95 426.63 490.864 426.63 488.29C426.63 485.716 424.544 483.63 421.97 483.63C419.396 483.63 417.31 485.716 417.31 488.29C417.31 490.864 419.396 492.95 421.97 492.95Z" fill="white"/>
<path d="M445.51 659.02C448.084 659.02 450.17 656.934 450.17 654.36C450.17 651.786 448.084 649.7 445.51 649.7C442.936 649.7 440.85 651.786 440.85 654.36C440.85 656.934 442.936 659.02 445.51 659.02Z" fill="white"/>
<path d="M732.31 591.64C732.31 589.6 730.65 587.94 728.61 587.94C726.57 587.94 724.91 589.6 724.91 591.64C724.91 593.68 726.57 595.34 728.61 595.34C730.65 595.34 732.31 593.68 732.31 591.64Z" fill="white"/>
<path d="M775.96 770.9C775.96 768.86 774.3 767.2 772.26 767.2C770.22 767.2 768.56 768.86 768.56 770.9C768.56 772.94 770.22 774.6 772.26 774.6C774.3 774.6 775.96 772.94 775.96 770.9Z" fill="white"/>
<path d="M671.9 481.96C674.474 481.96 676.56 479.874 676.56 477.3C676.56 474.726 674.474 472.64 671.9 472.64C669.326 472.64 667.24 474.726 667.24 477.3C667.24 479.874 669.326 481.96 671.9 481.96Z" fill="white"/>
</g>
<g opacity="0.5">
<path d="M493.31 119.86C497.585 119.86 501.05 116.395 501.05 112.12C501.05 107.845 497.585 104.38 493.31 104.38C489.035 104.38 485.57 107.845 485.57 112.12C485.57 116.395 489.035 119.86 493.31 119.86Z" fill="white"/>
<path d="M1134.72 187.12C1138.99 187.12 1142.46 183.655 1142.46 179.38C1142.46 175.105 1138.99 171.64 1134.72 171.64C1130.45 171.64 1126.98 175.105 1126.98 179.38C1126.98 183.655 1130.45 187.12 1134.72 187.12Z" fill="white"/>
<path d="M1148.01 192.86C1148.01 190.42 1146.03 188.44 1143.59 188.44C1141.15 188.44 1139.17 190.42 1139.17 192.86C1139.17 195.3 1141.15 197.28 1143.59 197.28C1146.03 197.28 1148.01 195.3 1148.01 192.86Z" fill="white"/>
<path d="M804.79 220.64C808.187 220.64 810.94 217.887 810.94 214.49C810.94 211.093 808.187 208.34 804.79 208.34C801.394 208.34 798.64 211.093 798.64 214.49C798.64 217.887 801.394 220.64 804.79 220.64Z" fill="white"/>
<path d="M507.97 105.95C510.544 105.95 512.63 103.864 512.63 101.29C512.63 98.7164 510.544 96.63 507.97 96.63C505.396 96.63 503.31 98.7164 503.31 101.29C503.31 103.864 505.396 105.95 507.97 105.95Z" fill="white"/>
<path d="M531.51 272.02C534.084 272.02 536.17 269.934 536.17 267.36C536.17 264.786 534.084 262.7 531.51 262.7C528.936 262.7 526.85 264.786 526.85 267.36C526.85 269.934 528.936 272.02 531.51 272.02Z" fill="white"/>
<path d="M818.31 204.64C818.31 202.6 816.65 200.94 814.61 200.94C812.57 200.94 810.91 202.6 810.91 204.64C810.91 206.68 812.57 208.34 814.61 208.34C816.65 208.34 818.31 206.68 818.31 204.64Z" fill="white"/>
<path d="M861.96 383.9C861.96 381.86 860.3 380.2 858.26 380.2C856.22 380.2 854.56 381.86 854.56 383.9C854.56 385.94 856.22 387.6 858.26 387.6C860.3 387.6 861.96 385.94 861.96 383.9Z" fill="white"/>
<path d="M757.9 94.96C760.474 94.96 762.56 92.8737 762.56 90.3C762.56 87.7264 760.474 85.64 757.9 85.64C755.326 85.64 753.24 87.7264 753.24 90.3C753.24 92.8737 755.326 94.96 757.9 94.96Z" fill="white"/>
</g>
<g opacity="0.5">
<path d="M1043.31 328.86C1047.58 328.86 1051.05 325.395 1051.05 321.12C1051.05 316.845 1047.58 313.38 1043.31 313.38C1039.04 313.38 1035.57 316.845 1035.57 321.12C1035.57 325.395 1039.04 328.86 1043.31 328.86Z" fill="white"/>
<path d="M1354.79 429.64C1358.19 429.64 1360.94 426.887 1360.94 423.49C1360.94 420.093 1358.19 417.34 1354.79 417.34C1351.39 417.34 1348.64 420.093 1348.64 423.49C1348.64 426.887 1351.39 429.64 1354.79 429.64Z" fill="white"/>
<path d="M1057.97 314.95C1060.54 314.95 1062.63 312.864 1062.63 310.29C1062.63 307.716 1060.54 305.63 1057.97 305.63C1055.4 305.63 1053.31 307.716 1053.31 310.29C1053.31 312.864 1055.4 314.95 1057.97 314.95Z" fill="white"/>
<path d="M1081.51 481.02C1084.08 481.02 1086.17 478.934 1086.17 476.36C1086.17 473.786 1084.08 471.7 1081.51 471.7C1078.94 471.7 1076.85 473.786 1076.85 476.36C1076.85 478.934 1078.94 481.02 1081.51 481.02Z" fill="white"/>
<path d="M1368.31 413.64C1368.31 411.6 1366.65 409.94 1364.61 409.94C1362.57 409.94 1360.91 411.6 1360.91 413.64C1360.91 415.68 1362.57 417.34 1364.61 417.34C1366.65 417.34 1368.31 415.68 1368.31 413.64Z" fill="white"/>
<path d="M1411.96 592.9C1411.96 590.86 1410.3 589.2 1408.26 589.2C1406.22 589.2 1404.56 590.86 1404.56 592.9C1404.56 594.94 1406.22 596.6 1408.26 596.6C1410.3 596.6 1411.96 594.94 1411.96 592.9Z" fill="white"/>
<path d="M1307.9 303.96C1310.47 303.96 1312.56 301.874 1312.56 299.3C1312.56 296.726 1310.47 294.64 1307.9 294.64C1305.33 294.64 1303.24 296.726 1303.24 299.3C1303.24 301.874 1305.33 303.96 1307.9 303.96Z" fill="white"/>
</g>
<path d="M25.61 239.62L25.54 237.07C28.88 236.98 32.15 236.47 35.27 235.57L35.98 238.02C32.66 238.99 29.17 239.52 25.61 239.62ZM15.18 238.65C11.74 237.91 8.4 236.76 5.27 235.24L6.38 232.95C9.33 234.38 12.47 235.46 15.71 236.16L15.17 238.65H15.18ZM45.59 233.75L44.25 231.58C47.02 229.87 49.6 227.8 51.93 225.4L53.76 227.17C51.29 229.72 48.54 231.93 45.59 233.75ZM79.83 231.4C78.9 231.4 77.96 231.37 77.04 231.3L77.22 228.76C80.44 228.99 83.75 228.79 87.04 228.16L87.52 230.66C84.95 231.15 82.36 231.4 79.82 231.4H79.83ZM-3.52 229.49C-4.38 228.75 -5.22 227.97 -6 227.17L-4.18 225.39C-3.45 226.14 -2.66 226.87 -1.86 227.56L-3.52 229.5V229.49ZM66.75 229C63.49 227.72 60.42 225.93 57.64 223.7L59.24 221.71C61.82 223.79 64.67 225.44 67.69 226.63L66.76 229H66.75ZM97.5 227.47L96.45 225.15C99.46 223.78 102.32 222.08 104.94 220.07L106.49 222.1C103.72 224.22 100.7 226.03 97.51 227.47H97.5ZM60.1 218.84L57.9 217.55C59.59 214.68 60.92 211.64 61.85 208.51L64.29 209.24C63.3 212.57 61.89 215.8 60.1 218.85V218.84ZM50.5 215.93C48.47 212.89 47.02 209.64 46.19 206.26L48.66 205.65C49.43 208.74 50.76 211.72 52.62 214.51L50.5 215.93ZM114.05 214.89L112.11 213.23C114.22 210.77 116.14 208.03 117.84 205.09L120.05 206.36C118.28 209.43 116.26 212.3 114.06 214.88L114.05 214.89ZM63.41 198.83V198.71C63.41 198.54 63.41 198.36 63.41 198.17C63.41 195.67 63.01 192.23 61.09 190.04L63.01 188.36C65.45 191.14 65.96 195.23 65.96 198.17C65.96 198.37 65.96 198.58 65.96 198.78L63.41 198.83ZM124.47 196.97L122.08 196.07C123.24 192.99 124.19 189.76 124.9 186.48L127.39 187.02C126.65 190.43 125.67 193.78 124.46 196.98L124.47 196.97ZM48.29 196.11L45.8 195.58C46.3 193.23 47.22 191.2 48.55 189.54C49.5 188.36 50.74 187.36 52.15 186.66L53.29 188.94C52.21 189.48 51.26 190.24 50.53 191.14C49.45 192.48 48.7 194.15 48.29 196.11Z" fill="#8363A9"/>
<path d="M132.86 179.55L130.34 179.16C130.59 177.54 130.79 175.87 130.93 174.19L133.47 174.4C133.33 176.14 133.12 177.87 132.86 179.56V179.55Z" fill="#8363A9"/>
<path d="M133.65 164.54L131.1 164.65C130.97 161.59 130.66 158.38 130.17 155.13L132.69 154.76C133.19 158.1 133.51 161.4 133.64 164.55L133.65 164.54ZM130.83 145.12L128.35 145.71C127.65 142.75 126.8 139.62 125.82 136.42L128.26 135.68C129.25 138.93 130.12 142.11 130.83 145.12ZM125.17 126.4L122.77 127.26C121.77 124.45 120.65 121.49 119.36 118.21L121.73 117.28C123.03 120.59 124.15 123.57 125.16 126.4H125.17ZM116.95 108.54L114.81 109.93C113.32 107.64 111.48 104.96 109.32 101.99L111.38 100.49C113.56 103.5 115.44 106.21 116.95 108.55V108.54ZM105.55 92.66L103.52 94.21C101.71 91.83 99.76 89.33 97.57 86.54L99.57 84.96C101.77 87.75 103.72 90.27 105.54 92.66H105.55ZM93.53 77.34L91.54 78.93C89.55 76.45 87.51 73.92 85.44 71.37L87.42 69.77C89.49 72.33 91.54 74.86 93.53 77.35V77.34ZM81.29 62.22L79.31 63.83C77.27 61.33 75.21 58.81 73.16 56.3L75.13 54.69C77.18 57.2 79.24 59.71 81.28 62.22H81.29ZM68.98 47.17L67.01 48.78C64.94 46.24 62.88 43.72 60.86 41.24L62.84 39.63C64.86 42.11 66.91 44.63 68.98 47.16V47.17ZM56.73 32.08L54.74 33.68C52.64 31.07 50.61 28.53 48.67 26.07L50.67 24.49C52.61 26.94 54.64 29.48 56.73 32.08ZM44.7 16.84L42.68 18.39C40.47 15.51 38.51 12.88 36.83 10.57L38.89 9.07001C40.55 11.36 42.5 13.97 44.69 16.83L44.7 16.84Z" fill="#8363A9"/>
<path d="M33.59 1.31L31.43 2.66C30.29 0.84 29.46 -0.67 28.88 -1.94L31.2 -3C31.73 -1.85 32.54 -0.4 33.6 1.31H33.59Z" fill="#8363A9"/>
</svg>
