<svg width="421" height="183" viewBox="0 0 421 183" fill="none" xmlns="http://www.w3.org/2000/svg">
<path d="M158.064 61.1638C168.168 64.9478 175.939 72.944 179.61 83.0634C186.557 102.189 192.544 132 165.372 137.701C124.716 146.245 22.2028 69.8278 27.006 40.0004C30.8656 16.0803 122.075 47.7055 158.064 61.1809V61.1638Z" fill="#FCEE21"/>
<path d="M93.5814 77.0876C150.585 123.781 173.589 101.984 181.445 88.4912C187.363 107.394 190.091 132.496 165.372 137.684C124.716 146.228 22.2028 69.8106 27.006 39.9832C27.4863 37.021 29.3218 34.9149 32.2209 33.5109C49.924 43.8015 70.955 58.544 93.5814 77.0876Z" fill="#F2D214"/>
<path d="M155.508 141.126C126.5 139.14 80.5613 111.966 50.7302 83.5771C39.8201 73.1838 21.8597 53.6641 24.1412 39.521C24.6901 36.0965 26.6799 33.3055 29.8878 31.4391C49.3921 20.1383 119.21 43.4934 159.11 58.4242C169.918 62.4651 178.392 71.0777 182.389 82.0532C187.398 95.8197 191.841 114.928 184.653 127.822C180.965 134.431 174.686 138.712 165.989 140.527C162.833 141.194 159.316 141.366 155.508 141.109V141.126ZM50.3871 34.3842C42.2045 33.8192 36.252 34.5041 32.8212 36.4903C31.1058 37.4834 30.1794 38.7505 29.905 40.4627C28.5669 48.7329 37.8645 63.287 54.7614 79.365C86.7539 109.826 139.829 140.081 164.771 134.859C171.839 133.369 176.659 130.15 179.524 125.014C185.648 114.038 181.462 96.693 176.865 84.0566C173.451 74.6906 166.229 67.345 157.035 63.9034C109.62 46.1473 72.1214 35.891 50.3699 34.4013L50.3871 34.3842Z" fill="black"/>
<path d="M170.244 79.1421C172.044 73.5908 158.837 64.3541 140.746 58.5112C122.655 52.6684 106.531 52.432 104.732 57.9833C102.932 63.5346 116.139 72.7713 134.23 78.6142C152.32 84.457 168.445 84.6934 170.244 79.1421Z" fill="#77E7EA"/>
<path d="M155.302 85.9058C148.784 85.4607 141.081 83.8683 133.276 81.3513C116.156 75.8207 99.0365 65.8554 101.901 57.0544C102.828 54.2292 106.121 50.8732 116.619 51.0273C123.687 51.1301 132.573 52.791 141.596 55.7018C158.716 61.2324 175.836 71.1976 172.971 79.9986C172.045 82.8238 168.751 86.1798 158.253 86.0257C157.309 86.0257 156.314 85.9743 155.302 85.9058ZM119.21 56.9688C118.301 56.9004 117.409 56.8661 116.534 56.849C110.204 56.7462 107.682 58.1503 107.459 58.8352C106.756 61.0097 115.299 69.3998 135.077 75.7864C143.552 78.526 151.803 80.1013 158.338 80.1869C164.686 80.2897 167.19 78.8856 167.413 78.2007C168.116 76.0262 159.574 67.6362 139.795 61.2495C132.436 58.8694 125.248 57.3798 119.21 56.9688Z" fill="#582B1D"/>
<path d="M367.379 152.101C367.379 152.101 196.798 211.67 70.063 156.981C-56.6723 102.275 26.5427 63.0985 73.2364 67.2935C119.93 71.4885 98.4531 2.62185 173.829 3.87179C249.187 5.12174 332.848 105.391 372.028 62.0369C411.226 18.6828 441.331 119.038 367.379 152.101Z" fill="#F93065"/>
<path d="M166.761 181.86C133.534 179.583 99.877 173.025 68.8965 159.652C6.06071 132.53 -2.85945 110.083 0.725773 96.0422C6.54105 73.2351 47.6082 62.0712 73.511 64.3827C92.3463 66.1121 98.9164 54.8455 107.116 40.5996C117.477 22.6039 130.36 0.224755 173.88 0.9439C208.051 1.52606 244.092 22.1073 275.879 40.2743C315.454 62.8931 349.642 82.447 369.867 60.0679C382.012 46.6438 392.202 47.6883 397.194 49.5033C407.726 53.3387 414.931 66.8826 415.549 84.0222C416.406 107.686 404.518 138.694 368.598 154.755C368.529 154.789 368.443 154.824 368.375 154.841C367.071 155.286 269.086 188.863 166.796 181.843L166.761 181.86ZM71.4354 70.0674C45.2067 68.2695 10.8983 79.793 6.38674 97.4634C2.11535 114.226 25.1534 134.397 71.2296 154.293C194.105 207.338 361.084 151.177 366.316 149.379C399.509 134.482 410.488 105.973 409.699 84.2277C409.167 69.6907 403.335 57.9447 395.187 54.9825C388.84 52.6881 381.6 55.7872 374.207 63.9718C350.843 89.8439 313.018 68.2182 272.98 45.3425C241.811 27.518 206.473 7.27923 173.777 6.78268C133.705 6.1149 122.28 25.977 112.177 43.5104C103.668 58.2871 95.5885 72.1906 72.9792 70.1873C72.4646 70.1359 71.9501 70.1016 71.4354 70.0674Z" fill="black"/>
<path d="M125.883 19.4875C122.212 22.9977 119.175 26.8331 116.499 30.8055C122.349 54.4003 135.575 86.8817 164.668 92.8232C211.293 102.343 297.15 125.938 314.442 117.257C331.733 108.576 334.752 82.036 327.221 76.7451C319.708 71.4543 243.492 63.6807 185.699 42.7228C149.178 29.4699 140.893 32.4493 125.883 19.5047V19.4875Z" fill="#FF97B7"/>
<path d="M410.763 71.7112C409.047 86.6591 402.494 105.734 382.029 118.764C343.775 143.163 258.519 167.015 117.22 140.646C33.679 125.048 24.8617 95.032 31.6033 73.0981C-3.32266 85.8201 -21.832 117.308 70.0631 156.981C196.798 211.688 367.379 152.101 367.379 152.101C408.001 133.934 417.195 95.5114 410.745 71.7112H410.763Z" fill="#BA3036"/>
<path d="M166.744 181.86C133.516 179.583 99.8598 173.025 68.8964 159.652C22.6659 139.688 -0.509333 119.911 0.0567554 100.837C0.416993 88.4057 11.55 77.2761 30.5912 70.3415C31.6205 69.9648 32.8041 70.2045 33.6104 70.975C34.4166 71.7284 34.7253 72.8927 34.3994 73.9372C31.466 83.4744 32.4095 92.3096 37.1955 100.203C47.4023 117.052 74.5231 129.688 117.769 137.77C282.14 168.453 360.398 129.089 380.468 116.298C396.387 106.145 405.599 91.0254 407.863 71.3688C408.018 69.9819 409.15 68.9032 410.557 68.7833C411.929 68.6806 413.233 69.5881 413.593 70.9408C419.768 93.7822 412.89 134.962 368.597 154.755C367.122 155.269 269.086 188.863 166.761 181.843L166.744 181.86ZM27.4348 77.9096C13.9173 83.9024 6.14643 92.1555 5.88912 101.008C5.61465 110.271 13.7458 129.483 71.2123 154.293C195.426 207.921 364.721 149.944 366.402 149.345C397.76 135.321 408.79 109.689 409.63 89.1077C405.479 100.357 397.742 112.189 383.59 121.212C363.074 134.294 283.152 174.583 116.671 143.506C71.7098 135.116 43.2853 121.555 32.1694 103.234C27.452 95.4601 25.8737 86.9674 27.4176 77.9096H27.4348Z" fill="black"/>
<path d="M143.534 104.946C174.172 107.24 194.619 89.6384 198.325 71.9167C200.898 59.5371 195.7 42.2092 172.508 34.1616C171.29 33.7335 170.037 33.3397 168.717 32.9801C164.805 31.8843 161.203 30.7542 157.909 29.607C142.488 24.2477 134.288 18.7856 130.411 15.6179C105.16 34.7609 107.15 70.2387 73.3564 67.2936C73.5451 70.2729 74.8145 73.1152 77.0789 75.1871C88.4006 85.4948 103.496 94.3814 118.455 99.5866C126.929 102.532 135.352 104.33 143.517 104.946H143.534Z" fill="#F2D214"/>
<path d="M144.409 93.354C185.253 96.419 205.77 55.4791 165.56 44.1782C140.584 37.158 127.924 28.9221 121.903 23.6826C107.613 40.3086 103.822 62.0199 84.9355 66.5916C98.4016 78.8513 121.011 91.5904 144.409 93.354Z" fill="#F8FAFB"/>
<path d="M143.809 107.891C143.654 107.891 143.483 107.874 143.328 107.857C134.906 107.223 126.226 105.374 117.528 102.343C102.193 97.0183 86.7367 87.9091 75.1404 77.3445C72.3614 74.8104 70.6975 71.3174 70.4745 67.4649C70.4231 66.6259 70.749 65.7869 71.3494 65.2047C71.9498 64.6225 72.8246 64.3143 73.648 64.3828C92.3804 65.9238 98.9677 54.7942 107.167 40.5997C112.451 31.4563 118.438 21.08 128.696 13.3064C129.777 12.4845 131.269 12.5188 132.315 13.3749C135.678 16.1316 143.603 21.5423 158.922 26.8674C162.198 28.0146 165.783 29.1276 169.557 30.1892C170.93 30.5659 172.25 30.9768 173.52 31.422C198.462 40.086 204.037 58.9721 201.224 72.516C197.295 91.3678 175.87 110.1 143.843 107.891H143.809ZM143.757 102.035C143.912 102.035 144.049 102.052 144.203 102.069C172.937 104.038 192.046 87.755 195.46 71.3345C197.793 60.1022 192.921 44.3495 171.547 36.9354C170.381 36.5245 169.18 36.1478 167.928 35.8054C164.034 34.7095 160.345 33.5623 156.949 32.3809C143.5 27.7064 135.266 22.9293 130.428 19.3507C122.16 26.2339 117.1 35.0177 112.194 43.5276C104.217 57.3626 96.6518 70.4613 77.096 70.4099C77.5592 71.403 78.2282 72.3105 79.0516 73.0639C90.0989 83.1148 104.8 91.7959 119.415 96.8642C127.632 99.7236 135.815 101.47 143.74 102.069L143.757 102.035Z" fill="black"/>
<path d="M382.029 118.764C378.736 116.778 374.773 116.384 371.136 117.582C364.24 119.877 354.565 124.791 358.974 133.626C365.561 146.862 409.63 158.591 416.921 150.663C422.77 144.293 393.763 125.818 382.029 118.747V118.764Z" fill="#FCEE21"/>
<path d="M391.807 140.287C366.127 134.688 367.157 123.455 369.198 118.284C362.594 120.801 354.96 125.596 358.957 133.643C365.544 146.879 409.613 158.608 416.904 150.68C417.624 149.893 417.813 148.917 417.573 147.804C410.78 145.132 401.997 142.53 391.807 140.304V140.287Z" fill="#F2D214"/>
<path d="M404.038 156.074C402.528 155.971 400.899 155.8 399.183 155.56C385.048 153.557 361.65 145.629 356.332 134.945C354.668 131.606 354.462 128.387 355.715 125.373C357.567 120.955 362.422 117.394 370.176 114.826C374.653 113.336 379.507 113.867 383.504 116.281C407.109 130.51 419.545 141.092 420.506 147.735C420.78 149.619 420.266 151.331 419.031 152.666C416.475 155.457 411.431 156.587 404.004 156.091L404.038 156.074ZM376.008 119.86C374.687 119.774 373.349 119.928 372.045 120.356C366.144 122.308 362.267 124.894 361.135 127.599C360.552 129.003 360.689 130.544 361.581 132.342C365.252 139.722 384.894 147.632 400.007 149.773C409.613 151.125 413.799 149.738 414.759 148.711C415.223 146.382 406.319 136.828 380.502 121.281C379.13 120.442 377.586 119.979 376.008 119.86Z" fill="black"/>
<path d="M393.48 136.364C394.638 134.634 391.012 130.186 385.38 126.429C379.748 122.671 374.244 121.028 373.086 122.757C371.927 124.487 375.554 128.935 381.186 132.692C386.817 136.45 392.321 138.094 393.48 136.364Z" fill="#FEFCD3"/>
<path d="M225.754 98.3195C219.39 96.1107 216.44 89.0905 218.91 82.0018L221.603 74.2624C224.193 66.8313 231.707 62.0369 238.723 63.3383L246.648 64.8108C247.249 64.9135 247.832 65.0848 248.381 65.2731C252.635 66.7456 255.363 70.3756 255.963 74.7247C259.514 70.3585 265.003 67.9613 270.218 68.9373L278.126 70.4099C278.727 70.5297 279.31 70.6838 279.859 70.8721C284.13 72.3618 286.858 75.9746 287.441 80.3409C290.975 75.9746 296.481 73.5604 301.696 74.5364L309.604 76.0089C310.205 76.1287 310.788 76.2828 311.337 76.4712C317.701 78.68 320.651 85.7002 318.181 92.7889L315.488 100.528C312.898 107.959 305.384 112.771 298.368 111.452L290.46 109.98C289.86 109.877 289.276 109.706 288.728 109.518C284.473 108.045 281.746 104.415 281.145 100.049C277.612 104.415 272.088 106.829 266.873 105.853L258.965 104.381C258.365 104.261 257.781 104.107 257.232 103.919C252.978 102.446 250.251 98.816 249.65 94.4669C246.099 98.8332 240.61 101.23 235.395 100.254L227.47 98.7818C226.869 98.6619 226.286 98.5078 225.737 98.3195H225.754Z" fill="black"/>
<path d="M245.996 68.2525L238.088 66.7799C232.822 65.8039 226.921 69.6565 224.914 75.4268L222.221 83.1661C220.214 88.9193 222.855 94.3814 228.139 95.3745L236.047 96.847C241.313 97.823 247.214 93.9704 249.221 88.2001L251.915 80.4608C253.922 74.7076 251.28 69.2456 245.996 68.2525ZM308.969 79.4506L301.061 77.978C295.795 77.002 289.894 80.8546 287.887 86.6249L285.194 94.3643C283.187 100.117 285.829 105.579 291.112 106.573L299.02 108.045C304.286 109.021 310.187 105.169 312.194 99.3983L314.888 91.6589C316.895 85.9058 314.253 80.4437 308.969 79.4506ZM277.492 73.8515L269.584 72.379C264.317 71.403 258.416 75.2555 256.409 81.0258L253.716 88.7652C251.709 94.5184 254.351 99.9804 259.634 100.974L267.542 102.446C272.808 103.422 278.71 99.5695 280.717 93.7992L283.41 86.0598C285.417 80.3067 282.775 74.8446 277.492 73.8515Z" fill="#F8FAFB"/>
<path d="M245.461 37.6653C246.912 33.5034 232.69 24.78 213.694 18.1809C194.698 11.5819 178.123 9.60608 176.672 13.7679C175.22 17.9298 189.443 26.6533 208.439 33.2524C227.434 39.8514 244.01 41.8271 245.461 37.6653Z" fill="#FF97B7"/>
<path d="M396.869 71.4648C399.183 64.829 397.229 58.1191 392.504 56.4779C387.78 54.8367 382.075 58.8857 379.761 65.5214C377.447 72.1572 379.401 78.867 384.125 80.5082C388.85 82.1494 394.555 78.1005 396.869 71.4648Z" fill="#FF97B7"/>
<path d="M53.5093 98.1825C61.4485 98.1825 67.8845 93.2379 67.8845 87.1385C67.8845 81.0391 61.4485 76.0945 53.5093 76.0945C45.57 76.0945 39.134 81.0391 39.134 87.1385C39.134 93.2379 45.57 98.1825 53.5093 98.1825Z" fill="#FF99B4"/>
</svg>
