<svg width="64" height="50" viewBox="0 0 64 50" fill="none" xmlns="http://www.w3.org/2000/svg">
<g filter="url(#filter0_d_11_2178)">
<path d="M39.2693 28.2996V35.0448C39.2693 35.4436 39.5908 35.7644 39.9906 35.7644C40.3904 35.7644 40.7119 35.4436 40.7119 35.0448V28.2996C40.7119 27.9008 40.3904 27.58 39.9906 27.58C39.5908 27.58 39.2693 27.9008 39.2693 28.2996Z" fill="white"/>
<path d="M42.25 29.8429V33.5016C42.25 33.9004 42.5715 34.2212 42.9713 34.2212C43.3711 34.2212 43.6926 33.9004 43.6926 33.5016V29.8429C43.6926 29.4441 43.3711 29.1233 42.9713 29.1233C42.5715 29.1233 42.25 29.4441 42.25 29.8429Z" fill="white"/>
<path d="M36.2971 26.4616V36.8829C36.2971 37.2817 36.6187 37.6025 37.0184 37.6025C37.4182 37.6025 37.7397 37.2817 37.7397 36.8829V26.4616C37.7397 26.0628 37.4182 25.742 37.0184 25.742C36.6187 25.742 36.2971 26.0628 36.2971 26.4616Z" fill="white"/>
<path d="M33.238 26.4616V36.8829C33.238 37.2817 33.5596 37.6025 33.9593 37.6025C34.3591 37.6025 34.6807 37.2817 34.6807 36.8829V26.4616C34.6807 26.0628 34.3591 25.742 33.9593 25.742C33.5596 25.742 33.238 26.0628 33.238 26.4616Z" fill="white"/>
<path d="M25.1472 28.2996V35.0448C25.1472 35.4436 24.8257 35.7644 24.4259 35.7644C24.0261 35.7644 23.7046 35.4436 23.7046 35.0448V28.2996C23.7046 27.9008 24.0261 27.58 24.4259 27.58C24.8257 27.58 25.1472 27.9008 25.1472 28.2996Z" fill="white"/>
<path d="M22.1665 29.8429V33.5016C22.1665 33.9004 21.845 34.2212 21.4452 34.2212C21.0454 34.2212 20.7239 33.9004 20.7239 33.5016V29.8429C20.7239 29.4441 21.0454 29.1233 21.4452 29.1233C21.845 29.1233 22.1665 29.4441 22.1665 29.8429Z" fill="white"/>
<path d="M28.1196 26.4616V36.8829C28.1196 37.2817 27.7981 37.6025 27.3983 37.6025C26.9986 37.6025 26.677 37.2817 26.677 36.8829V26.4616C26.677 26.0628 26.9986 25.742 27.3983 25.742C27.7981 25.742 28.1196 26.0628 28.1196 26.4616Z" fill="white"/>
<path d="M31.1785 26.4616V36.8829C31.1785 37.2817 30.8569 37.6025 30.4572 37.6025C30.0574 37.6025 29.7358 37.2817 29.7358 36.8829V26.4616C29.7358 26.0628 30.0574 25.742 30.4572 25.742C30.8569 25.742 31.1785 26.0628 31.1785 26.4616Z" fill="white"/>
<path d="M12.5895 24.2089V39.1992C12.5895 39.7801 12.0855 40.2396 11.5032 40.1702C7.29701 39.6414 4.03809 36.052 4.03809 31.7084C4.03809 27.3648 7.29701 23.7754 11.5032 23.2466C12.0768 23.1772 12.5895 23.6367 12.5895 24.2176V24.2089Z" fill="white"/>
<path d="M15.1793 41.0372C14.4319 41.0372 13.8323 40.439 13.8323 39.6934V23.7061C13.8323 22.9604 14.4319 22.3622 15.1793 22.3622C15.9267 22.3622 16.5263 22.9604 16.5263 23.7061V39.6934C16.5263 40.439 15.9267 41.0372 15.1793 41.0372Z" fill="white"/>
<path d="M53.8867 22.7003C53.8867 23.2639 53.8606 23.8188 53.8259 24.3736H51.7141C51.7662 23.8274 51.7836 23.2639 51.7836 22.7003C51.7836 20.9577 51.5576 19.2757 51.1405 17.6631H49.272C47.082 10.1203 40.1123 4.59755 31.8476 4.59755C23.583 4.59755 16.6045 10.1203 14.4232 17.6631H12.5548C12.1376 19.2757 11.9117 20.9577 11.9117 22.7003C11.9117 23.2639 11.9378 23.8188 11.9812 24.3736H9.86943C9.82597 23.8188 9.80859 23.2639 9.80859 22.7003C9.80859 10.5625 19.6723 0.713425 31.8476 0.713425C44.023 0.713425 53.8867 10.5625 53.8867 22.7003Z" fill="white"/>
<path d="M51.106 24.2089V39.1992C51.106 39.7801 51.61 40.2396 52.1923 40.1702C56.3985 39.6414 59.6574 36.052 59.6574 31.7084C59.6574 27.3648 56.3985 23.7754 52.1923 23.2466C51.6187 23.1772 51.106 23.6367 51.106 24.2176V24.2089Z" fill="white"/>
<path d="M48.516 41.0372C49.2633 41.0372 49.863 40.439 49.863 39.6934V23.7061C49.863 22.9604 49.2633 22.3622 48.516 22.3622C47.7686 22.3622 47.1689 22.9604 47.1689 23.7061V39.6934C47.1689 40.439 47.7686 41.0372 48.516 41.0372Z" fill="white"/>
</g>
<defs>
<filter id="filter0_d_11_2178" x="0.0380859" y="0.713425" width="63.6194" height="48.3238" filterUnits="userSpaceOnUse" color-interpolation-filters="sRGB">
<feFlood flood-opacity="0" result="BackgroundImageFix"/>
<feColorMatrix in="SourceAlpha" type="matrix" values="0 0 0 0 0 0 0 0 0 0 0 0 0 0 0 0 0 0 127 0" result="hardAlpha"/>
<feOffset dy="4"/>
<feGaussianBlur stdDeviation="2"/>
<feComposite in2="hardAlpha" operator="out"/>
<feColorMatrix type="matrix" values="0 0 0 0 0 0 0 0 0 0 0 0 0 0 0 0 0 0 0.25 0"/>
<feBlend mode="normal" in2="BackgroundImageFix" result="effect1_dropShadow_11_2178"/>
<feBlend mode="normal" in="SourceGraphic" in2="effect1_dropShadow_11_2178" result="shape"/>
</filter>
</defs>
</svg>
