<svg width="56" height="40" viewBox="0 0 56 40" fill="none" xmlns="http://www.w3.org/2000/svg">
<path d="M51.1772 20.0972V30.9028C51.1772 31.5416 50.6555 32.0555 50.0069 32.0555C49.3583 32.0555 48.8365 31.5416 48.8365 30.9028V20.0972C48.8365 19.4583 49.3583 18.9444 50.0069 18.9444C50.6555 18.9444 51.1772 19.4583 51.1772 20.0972Z" fill="white"/>
<path d="M46.3408 22.5695V28.4306C46.3408 29.0695 45.8191 29.5834 45.1705 29.5834C44.5218 29.5834 44.0001 29.0695 44.0001 28.4306V22.5695C44.0001 21.9306 44.5218 21.4167 45.1705 21.4167C45.8191 21.4167 46.3408 21.9306 46.3408 22.5695Z" fill="white"/>
<path d="M56 17.1528V33.8472C56 34.4861 55.4783 35 54.8296 35C54.181 35 53.6593 34.4861 53.6593 33.8472V17.1528C53.6593 16.5139 54.181 16 54.8296 16C55.4783 16 56 16.5139 56 17.1528Z" fill="white"/>
<path d="M41.1718 21.1497C41.0348 20.5676 40.3744 20.3083 39.8265 20.0686C38.9753 19.6968 38.173 19.1195 37.7571 18.2928C37.038 16.8545 37.6544 15.1569 37.9088 13.5719C38.0066 12.9604 38.0409 12.3342 38.0262 11.7031C38.6915 10.6856 39.0584 9.47234 38.9606 8.26888C38.8285 6.66428 37.7033 4.90802 36.0645 4.49219C35.8346 4.43349 35.5802 4.4237 35.3111 4.44816C35.1643 4.31608 35.0029 4.18399 34.8268 4.0519C31.7741 1.81622 28.1735 0.583415 24.3675 0.627444C22.2346 0.651904 20.1016 1.07752 18.135 1.91406C17.6262 2.12931 16.956 2.44241 16.1977 2.87291C15.4541 1.79176 14.4855 1.12154 13.1744 0.61766C12.3721 0.309458 11.5405 0.0648539 10.6843 0.0110409C8.18937 -0.145506 5.80203 1.38083 4.37844 3.4355C2.45095 6.20931 2.07426 9.9909 3.4098 13.0974C3.94793 14.3449 4.73067 15.47 5.37642 16.6686C6.02218 17.8672 6.53585 19.188 6.45268 20.548C6.38908 21.6438 5.8216 22.8033 4.78937 23.1751C3.66908 23.5713 2.33354 22.8131 1.95685 21.6879C1.73671 21.0274 1.90304 20.1469 2.5488 19.8974C1.10563 20.0735 0.00491121 21.5313 1.91206e-05 22.999C-0.00487297 24.4666 0.929515 25.8364 2.18678 26.5946C3.44405 27.3529 4.97038 27.5584 6.43311 27.4361C8.14045 27.2942 9.86246 26.6729 11.1442 25.5673C11.2078 25.6309 11.2714 25.6994 11.3399 25.763C11.971 26.35 12.7097 26.8686 13.0717 27.6513C13.4386 28.4292 13.1989 29.5788 12.3672 29.799C12.9102 30.6649 14.1969 30.6453 15.1459 30.2686C15.3905 30.1708 15.6351 30.0533 15.8748 29.9359C16.501 30.4545 17.1517 30.9486 17.817 31.4133C18.3992 31.8194 19.0058 32.2156 19.4461 32.7685C19.8179 33.2381 20.0527 33.7958 20.3071 34.3388C21.354 36.5696 22.9879 38.771 25.3802 39.3679C25.703 39.4462 26.0455 39.4951 26.3586 39.3777C26.6668 39.2603 26.9212 38.9374 26.8576 38.6145C26.8282 38.458 26.7304 38.321 26.6374 38.1889C25.5514 36.6283 24.3822 33.8105 25.2138 31.8683C26.0895 32.4847 27.0533 32.9886 28.0464 33.3946C29.1324 33.8398 30.3212 34.1725 31.4757 33.9572C32.6302 33.742 33.7212 32.8272 33.8092 31.6579C33.8484 31.1345 33.7261 30.5034 34.1223 30.1561C34.5479 29.7843 35.453 29.8674 35.4823 29.3049C35.5068 28.9184 35.0469 28.7178 34.6751 28.6102C33.9804 28.4047 33.2858 28.1356 32.7476 27.6464C32.2095 27.1572 31.8573 26.4185 32.004 25.7092C32.0383 25.5331 32.1117 25.352 32.2584 25.2444C32.5177 25.0585 32.8797 25.1808 33.183 25.2933C34.2006 25.6651 35.3013 25.8119 36.3825 25.7238C36.9108 25.6798 37.5321 25.4988 37.6887 24.99C37.7816 24.6916 37.6789 24.3687 37.7229 24.0605C37.8012 23.5175 38.3099 23.1408 38.8285 22.9549C39.3422 22.769 39.9048 22.7054 40.3891 22.4559C40.8734 22.2113 41.2941 21.683 41.1718 21.1497Z" fill="white"/>
</svg>
