<svg width="1068" height="483" viewBox="0 0 1068 483" fill="none" xmlns="http://www.w3.org/2000/svg">
<path d="M913.195 146.368C878.526 146.368 846.654 155.015 820.888 169.415C801.126 157.6 778.569 148.371 754.038 142.276C741.018 62.1425 649.792 0.00500488 538.959 0.00500488C456.464 0.00500488 384.76 34.4212 348.101 85.0524C335.27 82.4669 321.855 80.9773 307.943 80.9773C238.915 80.9773 180.505 114.846 160.795 161.521C68.6595 180.185 0.780396 242.922 0.780396 317.644C0.780396 407.075 97.856 479.572 217.609 479.572C258.008 479.572 295.678 471.182 328.048 456.816C361.876 473.117 402.086 482.688 445.348 482.688C501.065 482.688 551.705 466.867 590.113 441.063C618.949 451.662 651.268 457.775 685.576 457.775C767.745 457.775 839.226 423.633 876.005 373.31C887.927 375.518 900.329 376.82 913.161 376.82C998.365 376.82 1067.45 325.23 1067.45 261.602C1067.45 197.975 998.365 146.385 913.161 146.385L913.195 146.368Z" fill="#CCE4FA"/>
<path opacity="0.86" d="M875.988 161.898C843.052 161.898 812.774 170.1 788.295 183.798C769.529 172.583 748.086 163.799 724.791 158.011C712.422 81.8677 625.742 22.8464 520.467 22.8464C442.106 22.8464 373.97 55.5333 339.147 103.647C326.967 101.199 314.205 99.7607 300.996 99.7607C235.416 99.7607 179.922 131.934 161.207 176.281C73.6687 194.02 9.18604 253.606 9.18604 324.613C9.18604 409.575 101.407 478.459 215.191 478.459C253.565 478.459 289.348 470.48 320.123 456.833C352.27 472.329 390.472 481.421 431.574 481.421C484.512 481.421 532.612 466.387 569.099 441.885C596.494 451.953 627.2 457.758 659.793 457.758C737.862 457.758 805.775 425.311 840.719 377.505C852.04 379.594 863.825 380.844 876.022 380.844C956.973 380.844 1022.6 331.839 1022.6 271.379C1022.6 210.92 956.973 161.915 876.022 161.915L875.988 161.898Z" fill="white"/>
</svg>
